# xmcd CD database file
#
# Track frame offsets:
#	150
#	19512
#	43440
#
# Disc length: 834 seconds
#
# Revision: 0
# Processed by: cddbd v1.5.1PL0 Copyright (c) Steve Scherf et al.
# Submitted via: CDex 1.51
#
DISCID=1f034003
DTITLE=Skirt - スカートをはいた果実
DYEAR=1995
DGENRE=JPop
TTITLE0=スカートをはいた果実
TTITLE1=あなたを忘れない
TTITLE2=スカートをはいた果実(オリジナル・カラオケ)
EXTD=YEAR: 1995
EXTT0=
EXTT1=
EXTT2=
PLAYORDER=
